<?xml version="1.0" encoding="UTF-8"?>
<!DOCTYPE svg PUBLIC "-//W3C//DTD SVG 1.1//EN" "http://www.w3.org/Graphics/SVG/1.1/DTD/svg11.dtd">
<!-- Creator: CorelDRAW -->
<svg xmlns="http://www.w3.org/2000/svg" xml:space="preserve" width="8in" height="8in" style="shape-rendering:geometricPrecision; text-rendering:geometricPrecision; image-rendering:optimizeQuality; fill-rule:evenodd; clip-rule:evenodd"
viewBox="0 0 8 8"
 xmlns:xlink="http://www.w3.org/1999/xlink">
 <defs>
  <style type="text/css">
   <![CDATA[
    .fil1 {fill:black}
    .fil0 {fill:black;fill-rule:nonzero}
   ]]>
  </style>
 </defs>
 <g id="Layer_x0020_1">
  <metadata id="CorelCorpID_0Corel-Layer"/>
  <g id="_489128448">
   <path id="_489128736" class="fil0" d="M1.52 2.48202l4.96 0c0.0441811,0 0.08,0.0358189 0.08,0.08l0 2.87596c0,0.0441811 -0.0358189,0.08 -0.08,0.08l-4.96 0c-0.0441811,0 -0.08,-0.0358189 -0.08,-0.08l0 -2.87596c0,-0.0441811 0.0358189,-0.08 0.08,-0.08zm4.88 0.16l-4.8 0 0 2.71596 4.8 0 0 -2.71596z"/>
   <path id="_489128088" class="fil0" d="M1.56 2.49296c-0.0381417,-0.0220906 -0.0869724,-0.00907874 -0.109063,0.029063 -0.0220906,0.0381417 -0.00907874,0.0869724 0.029063,0.109063l2.47996 1.43796 -9.44882e-005 0.000165354c0.0274921,0.0159409 0.0605394,0.0136772 0.0851732,-0.00307087l2.47496 -1.43506c0.0381417,-0.0220906 0.0511535,-0.0709213 0.029063,-0.109063 -0.0220906,-0.0381417 -0.0709213,-0.0511535 -0.109063,-0.029063l-2.44 1.41479 -2.44 -1.41479z"/>
   <path id="_489128112" class="fil0" d="M6.48 5.44145c0.00191732,0 0.00347244,-0.00155512 0.00347244,-0.00347244 0,-0.00191732 -0.00155512,-0.00347244 -0.00347244,-0.00347244l-4.96 0c-0.00191732,0 -0.00347244,0.00155512 -0.00347244,0.00347244 0,0.00191732 0.00155512,0.00347244 0.00347244,0.00347244l4.96 0z"/>
   <path id="_489128544" class="fil0" d="M4.59906 4.23656c-0.0381417,-0.0219173 -0.0868346,-0.00876772 -0.108752,0.029374 -0.0219173,0.0381417 -0.00876772,0.0868346 0.029374,0.108752l1.13143 0.653232c0.0381417,0.0219173 0.0868346,0.00876772 0.108752,-0.029374 0.0219173,-0.0381417 0.00876772,-0.0868346 -0.029374,-0.108752l-1.13143 -0.653232z"/>
   <path id="_489128712" class="fil0" d="M3.48044 4.3724c0.0377953,-0.0227795 0.0499646,-0.0718937 0.027185,-0.109689 -0.0227795,-0.0377953 -0.0718937,-0.0499646 -0.109689,-0.027185l-1.13 0.68328c-0.0377953,0.0227795 -0.0499646,0.0718937 -0.027185,0.109689 0.0227795,0.0377953 0.0718937,0.0499646 0.109689,0.027185l1.13 -0.68328z"/>
  </g>
  <path class="fil1" d="M4 0c2.20914,0 4,1.79086 4,4 0,2.20914 -1.79086,4 -4,4 -2.20914,0 -4,-1.79086 -4,-4 0,-2.20914 1.79086,-4 4,-4zm0 0.319996c2.03241,0 3.68,1.64759 3.68,3.68 0,2.03241 -1.64759,3.68 -3.68,3.68 -2.03241,0 -3.68,-1.64759 -3.68,-3.68 0,-2.03241 1.64759,-3.68 3.68,-3.68z"/>
 </g>
</svg>
