<?xml version="1.0" standalone="no"?>
<!DOCTYPE svg PUBLIC "-//W3C//DTD SVG 20010904//EN"
 "http://www.w3.org/TR/2001/REC-SVG-20010904/DTD/svg10.dtd">
<svg version="1.0" xmlns="http://www.w3.org/2000/svg"
 width="501.000000pt" height="501.000000pt" viewBox="0 0 501.000000 501.000000"
 preserveAspectRatio="xMidYMid meet">

<g transform="translate(0.000000,501.000000) scale(0.100000,-0.100000)"
fill="#000000" stroke="none">
<path d="M0 4185 l0 -825 95 0 95 0 0 730 0 730 2315 0 2315 0 -2 -2312 -3
-2313 -1152 -3 -1153 -2 0 -90 0 -90 1245 0 1245 0 0 2500 0 2500 -2500 0
-2500 0 0 -825z"/>
<path d="M1300 3225 l0 -125 -30 0 -30 0 0 -75 0 -75 30 0 30 0 0 -270 0 -270
80 0 80 0 0 270 0 270 65 0 65 0 0 75 0 75 -65 0 -65 0 0 125 0 125 -80 0 -80
0 0 -125z"/>
<path d="M2737 3110 c-156 -27 -254 -150 -265 -330 -9 -168 56 -293 186 -357
50 -25 68 -28 152 -28 103 1 154 16 225 70 30 24 95 108 95 124 0 3 -30 22
-66 41 -64 34 -66 34 -76 15 -24 -42 -85 -93 -125 -104 -90 -24 -191 32 -218
121 -7 25 -11 49 -8 52 4 3 114 6 246 6 l240 0 -5 83 c-6 101 -33 168 -91 225
-72 70 -180 101 -290 82z m139 -156 c33 -16 64 -50 77 -86 6 -17 -5 -18 -148
-18 -85 0 -155 4 -155 9 0 4 10 23 23 41 44 65 131 88 203 54z"/>
<path d="M3572 3111 c-18 -5 -50 -20 -72 -35 l-40 -26 0 25 c0 25 -1 25 -80
25 l-80 0 0 -345 0 -345 80 0 80 0 0 213 c0 116 5 228 10 248 20 73 97 107
171 76 l36 -15 36 73 36 73 -37 15 c-48 21 -99 27 -140 18z"/>
<path d="M1806 2883 c58 -120 137 -284 176 -365 39 -82 74 -148 77 -148 5 0
330 668 347 713 6 15 -2 17 -83 17 l-89 0 -84 -190 c-47 -104 -88 -190 -91
-190 -3 0 -44 85 -90 190 l-84 190 -92 0 -92 0 105 -217z"/>
<path d="M1400 2154 c-36 -20 -66 -37 -68 -38 -3 -4 416 -778 427 -789 11 -11
136 54 136 71 0 13 -418 791 -425 792 -3 0 -34 -16 -70 -36z"/>
<path d="M3074 1843 c-103 -192 -200 -371 -216 -399 l-29 -52 66 -36 c36 -20
69 -36 73 -36 7 0 412 741 427 781 5 13 -10 25 -60 53 -36 20 -67 36 -69 36
-2 0 -88 -156 -192 -347z"/>
<path d="M2263 2045 c-102 -31 -176 -97 -222 -195 -22 -47 -26 -69 -26 -150 0
-84 3 -102 29 -158 37 -80 114 -152 194 -182 79 -30 235 -25 302 9 75 39 124
86 161 153 33 61 34 66 34 178 0 106 -2 119 -27 165 -48 90 -116 147 -209 176
-70 22 -174 24 -236 4z m221 -159 c53 -31 86 -91 93 -165 14 -151 -82 -253
-225 -238 -72 8 -123 42 -153 103 -43 90 -23 221 44 282 59 55 165 62 241 18z"/>
</g>
</svg>
